<svg xmlns="http://www.w3.org/2000/svg" version="1.1" xmlns:xlink="http://www.w3.org/1999/xlink" xmlns:svgjs="http://svgjs.dev/svgjs" viewBox="0 0 1422 800"><defs><linearGradient x1="50%" y1="0%" x2="50%" y2="100%" id="oooscillate-grad"><stop stop-color="hsl(37, 99%, 67%)" stop-opacity="1" offset="0%"></stop><stop stop-color="hsl(316, 73%, 52%)" stop-opacity="1" offset="100%"></stop></linearGradient></defs><g stroke-width="2" stroke="url(#oooscillate-grad)" fill="none" stroke-linecap="round"><path d="M 0 884 Q 355.5 -100 711 400 Q 1066.5 900 1422 884" stroke-dasharray="0 3" opacity="0.51"></path><path d="M 0 850 Q 355.5 -100 711 400 Q 1066.5 900 1422 850" stroke-dasharray="1 1" opacity="0.21"></path><path d="M 0 816 Q 355.5 -100 711 400 Q 1066.5 900 1422 816" stroke-dasharray="2 2" opacity="0.61"></path><path d="M 0 782 Q 355.5 -100 711 400 Q 1066.5 900 1422 782" stroke-dasharray="2 2" opacity="0.88"></path><path d="M 0 748 Q 355.5 -100 711 400 Q 1066.5 900 1422 748" stroke-dasharray="1 1" opacity="0.40"></path><path d="M 0 714 Q 355.5 -100 711 400 Q 1066.5 900 1422 714" stroke-dasharray="2 3" opacity="0.60"></path><path d="M 0 680 Q 355.5 -100 711 400 Q 1066.5 900 1422 680" stroke-dasharray="0 2" opacity="0.86"></path><path d="M 0 646 Q 355.5 -100 711 400 Q 1066.5 900 1422 646" stroke-dasharray="3 2" opacity="0.47"></path><path d="M 0 612 Q 355.5 -100 711 400 Q 1066.5 900 1422 612" stroke-dasharray="0 1" opacity="0.61"></path><path d="M 0 578 Q 355.5 -100 711 400 Q 1066.5 900 1422 578" stroke-dasharray="3 1" opacity="0.72"></path><path d="M 0 544 Q 355.5 -100 711 400 Q 1066.5 900 1422 544" stroke-dasharray="2 1" opacity="0.94"></path><path d="M 0 510 Q 355.5 -100 711 400 Q 1066.5 900 1422 510" stroke-dasharray="0 2" opacity="0.65"></path><path d="M 0 476 Q 355.5 -100 711 400 Q 1066.5 900 1422 476" stroke-dasharray="2 2" opacity="0.14"></path><path d="M 0 442 Q 355.5 -100 711 400 Q 1066.5 900 1422 442" stroke-dasharray="2 1" opacity="0.97"></path><path d="M 0 408 Q 355.5 -100 711 400 Q 1066.5 900 1422 408" stroke-dasharray="1 2" opacity="0.32"></path><path d="M 0 374 Q 355.5 -100 711 400 Q 1066.5 900 1422 374" stroke-dasharray="2 2" opacity="0.84"></path><path d="M 0 340 Q 355.5 -100 711 400 Q 1066.5 900 1422 340" stroke-dasharray="2 0" opacity="0.56"></path><path d="M 0 306 Q 355.5 -100 711 400 Q 1066.5 900 1422 306" opacity="0.16"></path><path d="M 0 272 Q 355.5 -100 711 400 Q 1066.5 900 1422 272" stroke-dasharray="3 2" opacity="0.57"></path><path d="M 0 238 Q 355.5 -100 711 400 Q 1066.5 900 1422 238" stroke-dasharray="1 2" opacity="0.08"></path><path d="M 0 204 Q 355.5 -100 711 400 Q 1066.5 900 1422 204" stroke-dasharray="2 0" opacity="0.56"></path><path d="M 0 170 Q 355.5 -100 711 400 Q 1066.5 900 1422 170" stroke-dasharray="2 2" opacity="0.83"></path><path d="M 0 136 Q 355.5 -100 711 400 Q 1066.5 900 1422 136" stroke-dasharray="2 0" opacity="0.66"></path><path d="M 0 102 Q 355.5 -100 711 400 Q 1066.5 900 1422 102" stroke-dasharray="3 0" opacity="0.19"></path><path d="M 0 68 Q 355.5 -100 711 400 Q 1066.5 900 1422 68" stroke-dasharray="2 0" opacity="0.69"></path></g></svg>